<svg xmlns="http://www.w3.org/2000/svg" width="74" height="62" viewBox="0 0 74 62"><defs><style>.a{fill:#1e293b;}.a,.b{stroke:#1e293b;}.b{fill:#fff;}.c{fill:#0c1f50;}.d{stroke:none;}.e{fill:none;}</style></defs><g transform="translate(-537 -352)"><g transform="translate(0 -3)"><g transform="translate(30 89)"><g transform="translate(513.217 274.72)"><path class="a" d="M38.181,42.032c-1.444-.611-3.8-.641-4.848-1.115-.722-.336-1.87-.7-2.243-1.237s-.374-4.352-.374-4.352a7.084,7.084,0,0,0,1.276-2.138,27.794,27.794,0,0,0,.619-4.2s.851.428,1.186-1.588c.284-1.741.825-2.657.683-3.94s-.748-.977-.748-.977.748-1.3.748-5.711c0-4.551-2.9-9.025-8.329-9.025s-8.342,4.49-8.342,9.025c0,4.413.735,5.711.735,5.711s-.606-.305-.748.977.387,2.2.683,3.94c.335,2.031,1.186,1.588,1.186,1.588a28.062,28.062,0,0,0,.619,4.2,7.084,7.084,0,0,0,1.276,2.138s0,3.818-.374,4.352A6.185,6.185,0,0,1,18.944,40.9c-1.031.473-3.391.534-4.848,1.145s-5.905,3.39-5.905,10.262H44.074C44.087,45.422,39.625,42.642,38.181,42.032Z" transform="translate(4.789 -7.749)"/><path class="a" d="M18.784,30.541s3.65-.122,5.1-1.42c-2.367-3.589-1.084-7.773-1.573-11.682-.489-3.894-2.7-6.231-7.132-6.231h-.061c-4.276,0-6.582,2.321-7.07,6.231-.489,3.894.87,8.552-1.558,11.682,1.451,1.313,5.116,1.267,5.116,1.267h0s.153,2.2-.153,2.566a3.856,3.856,0,0,1-1.833.84,35.431,35.431,0,0,0-3.955,1.1,6.43,6.43,0,0,0-3.451,5.681H14.477c.336-1.222,2.642-3.405,4.887-4.551a10.255,10.255,0,0,1,3.772-.794s.58-.916-1.329-1.267a13.017,13.017,0,0,1-2.932-1.023C18.585,32.6,18.784,30.541,18.784,30.541Z" transform="translate(-2.215 -3.695)"/><path class="a" d="M28.908,30.541s-3.65-.122-5.1-1.42c2.367-3.589,1.084-7.773,1.573-11.682.489-3.894,2.7-6.231,7.132-6.231h.061c4.276,0,6.582,2.321,7.07,6.231.489,3.894-.87,8.552,1.558,11.682-1.451,1.313-5.116,1.267-5.116,1.267h0s-.153,2.2.153,2.566a3.856,3.856,0,0,0,1.833.84,35.431,35.431,0,0,1,3.955,1.1,6.43,6.43,0,0,1,3.451,5.681H33.215c-.336-1.222-2.642-3.405-4.887-4.551a10.255,10.255,0,0,0-3.772-.794s-.58-.916,1.329-1.267a13.017,13.017,0,0,0,2.932-1.023C29.107,32.6,28.908,30.541,28.908,30.541Z" transform="translate(16.473 -3.695)"/></g><g transform="translate(-214 -38)"><g class="b" transform="translate(721 304)"><rect class="d" width="74" height="62" rx="19"/><rect class="e" x="0.5" y="0.5" width="73" height="61" rx="18.5"/></g></g></g></g><g transform="translate(543 363.72)"><path class="c" d="M38.181,42.032c-1.444-.611-3.8-.641-4.848-1.115-.722-.336-1.87-.7-2.243-1.237s-.374-4.352-.374-4.352a7.084,7.084,0,0,0,1.276-2.138,27.794,27.794,0,0,0,.619-4.2s.851.428,1.186-1.588c.284-1.741.825-2.657.683-3.94s-.748-.977-.748-.977.748-1.3.748-5.711c0-4.551-2.9-9.025-8.329-9.025s-8.342,4.49-8.342,9.025c0,4.413.735,5.711.735,5.711s-.606-.305-.748.977.387,2.2.683,3.94c.335,2.031,1.186,1.588,1.186,1.588a28.062,28.062,0,0,0,.619,4.2,7.084,7.084,0,0,0,1.276,2.138s0,3.818-.374,4.352A6.185,6.185,0,0,1,18.944,40.9c-1.031.473-3.391.534-4.848,1.145s-5.905,3.39-5.905,10.262H44.074C44.087,45.422,39.625,42.642,38.181,42.032Z" transform="translate(4.789 -7.749)"/><path class="c" d="M18.784,30.541s3.65-.122,5.1-1.42c-2.367-3.589-1.084-7.773-1.573-11.682-.489-3.894-2.7-6.231-7.132-6.231h-.061c-4.276,0-6.582,2.321-7.07,6.231-.489,3.894.87,8.552-1.558,11.682,1.451,1.313,5.116,1.267,5.116,1.267h0s.153,2.2-.153,2.566a3.856,3.856,0,0,1-1.833.84,35.431,35.431,0,0,0-3.955,1.1,6.43,6.43,0,0,0-3.451,5.681H14.477c.336-1.222,2.642-3.405,4.887-4.551a10.255,10.255,0,0,1,3.772-.794s.58-.916-1.329-1.267a13.017,13.017,0,0,1-2.932-1.023C18.585,32.6,18.784,30.541,18.784,30.541Z" transform="translate(-2.215 -3.695)"/><path class="c" d="M28.908,30.541s-3.65-.122-5.1-1.42c2.367-3.589,1.084-7.773,1.573-11.682.489-3.894,2.7-6.231,7.132-6.231h.061c4.276,0,6.582,2.321,7.07,6.231.489,3.894-.87,8.552,1.558,11.682-1.451,1.313-5.116,1.267-5.116,1.267h0s-.153,2.2.153,2.566a3.856,3.856,0,0,0,1.833.84,35.431,35.431,0,0,1,3.955,1.1,6.43,6.43,0,0,1,3.451,5.681H33.215c-.336-1.222-2.642-3.405-4.887-4.551a10.255,10.255,0,0,0-3.772-.794s-.58-.916,1.329-1.267a13.017,13.017,0,0,0,2.932-1.023C29.107,32.6,28.908,30.541,28.908,30.541Z" transform="translate(16.473 -3.695)"/></g></g></svg>