<svg xmlns="http://www.w3.org/2000/svg" width="10.799" height="10.802" viewBox="0 0 10.799 10.802"><defs><style>.a{fill:#fff;}</style></defs><path class="a" d="M14.408,9.9A1.39,1.39,0,0,1,15.3,8.6,5.508,5.508,0,0,0,14.633,7a1.408,1.408,0,0,1-.565.121A1.387,1.387,0,0,1,12.8,5.167,5.492,5.492,0,0,0,11.2,4.5,1.388,1.388,0,0,1,8.6,4.5,5.508,5.508,0,0,0,7,5.167,1.387,1.387,0,0,1,5.729,7.118,1.362,1.362,0,0,1,5.164,7,5.63,5.63,0,0,0,4.5,8.606a1.389,1.389,0,0,1,0,2.593A5.508,5.508,0,0,0,5.169,12.8,1.387,1.387,0,0,1,7,14.636a5.541,5.541,0,0,0,1.606.667,1.386,1.386,0,0,1,2.587,0,5.508,5.508,0,0,0,1.606-.667A1.389,1.389,0,0,1,14.63,12.8,5.541,5.541,0,0,0,15.3,11.2,1.4,1.4,0,0,1,14.408,9.9ZM9.925,12.147a2.25,2.25,0,1,1,2.25-2.25A2.249,2.249,0,0,1,9.925,12.147Z" transform="translate(-4.5 -4.5)"/></svg>