<svg xmlns="http://www.w3.org/2000/svg" width="28.047" height="28.047" viewBox="0 0 28.047 28.047"><defs><style>.a{fill:#a4cbff;}</style></defs><path class="a" d="M13.089,7.187h3.506V8.94H13.089Zm5.259,0h3.506V8.94H18.347Zm8.765,0V14.2H21.853V12.446h3.506V8.94H23.606V7.187ZM11.336,12.446h3.506V14.2H11.336Zm5.259,0H20.1V14.2H16.594ZM7.83,8.94v3.506H9.583V14.2H6.077V7.187h5.259V8.94ZM13.089,17.7h3.506v1.753H13.089Zm5.259,0h3.506v1.753H18.347Zm8.765,0v7.012H21.853V22.964h3.506V19.458H23.606V17.7ZM11.336,22.964h3.506v1.753H11.336Zm5.259,0H20.1v1.753H16.594ZM7.83,19.458v3.506H9.583v1.753H6.077V17.7h5.259v1.753ZM28.865,3.681H4.324V28.223H28.865V3.681Zm1.753-1.753V29.975H2.571V1.928H30.618Z" transform="translate(-2.571 -1.928)"/></svg>