<svg xmlns="http://www.w3.org/2000/svg" width="17.44" height="17.44" viewBox="0 0 17.44 17.44"><defs><style>.a{fill:#a4cbff;}</style></defs><path class="a" d="M9.283.563a8.72,8.72,0,1,1-8.72,8.72A8.718,8.718,0,0,1,9.283.563ZM8.266,5.612l2.655,2.546H4.5A.842.842,0,0,0,3.657,9v.563a.842.842,0,0,0,.844.844h6.42L8.266,12.953a.845.845,0,0,0-.014,1.206l.387.383a.84.84,0,0,0,1.192,0L14.5,9.88a.84.84,0,0,0,0-1.192L9.831,4.019a.84.84,0,0,0-1.192,0L8.252,4.4a.849.849,0,0,0,.014,1.21Z" transform="translate(-0.563 -0.563)"/></svg>