<svg xmlns="http://www.w3.org/2000/svg" width="40.801" height="22.1" viewBox="0 0 40.801 22.1"><defs><style>.a{fill:#a4cbff;}</style></defs><path class="a" d="M13.6,16H8.5V10.9H5.1V16H0v3.4H5.1v5.1H8.5V19.4h5.1Zm17,1.7a5.1,5.1,0,1,0-1.547-9.962,8.388,8.388,0,0,1,1.53,4.862,8.554,8.554,0,0,1-1.53,4.862A5.083,5.083,0,0,0,30.6,17.7Zm-8.5,0A5.1,5.1,0,1,0,17,12.6,5.079,5.079,0,0,0,22.1,17.7Zm11.254,3.672A6.29,6.29,0,0,1,35.7,26.2v3.4h5.1V26.2C40.8,23.582,36.772,21.967,33.355,21.372ZM22.1,21.1c-3.4,0-10.2,1.7-10.2,5.1v3.4H32.3V26.2C32.3,22.8,25.5,21.1,22.1,21.1Z" transform="translate(0 -7.5)"/></svg>