<svg xmlns="http://www.w3.org/2000/svg" width="377.489" height="49.331" viewBox="0 0 377.489 49.331"><defs><style>.a{fill:#fff;}.b,.c{stroke:none;}.c{fill:#404040;}</style></defs><g class="a"><path class="b" d="M 352.8237915039062 48.83090209960938 L 24.66547966003418 48.83090209960938 C 21.40292930603027 48.83090209960938 18.23827934265137 48.19205474853516 15.25932884216309 46.93205261230469 C 12.38182926177979 45.7149543762207 9.797378540039062 43.97250366210938 7.577929019927979 41.75300216674805 C 5.358428955078125 39.53355407714844 3.615978956222534 36.94910430908203 2.398878812789917 34.07160186767578 C 1.13887894153595 31.09265327453613 0.5000289082527161 27.92800331115723 0.5000289082527161 24.66545295715332 C 0.5000289082527161 21.40290260314941 1.13887894153595 18.23825263977051 2.398878812789917 15.25930309295654 C 3.615978956222534 12.38180255889893 5.358428955078125 9.79735279083252 7.577929019927979 7.577902793884277 C 9.797378540039062 5.358402729034424 12.38182926177979 3.615952968597412 15.25932884216309 2.398853063583374 C 18.23827934265137 1.138852953910828 21.40292930603027 0.5000029802322388 24.66547966003418 0.5000029802322388 L 352.8237915039062 0.5000029802322388 C 356.0863342285156 0.5000029802322388 359.2509765625 1.138852953910828 362.2299194335938 2.398853063583374 C 365.1074829101562 3.615952968597412 367.6918640136719 5.358402729034424 369.911376953125 7.577902793884277 C 372.1308288574219 9.79735279083252 373.8733215332031 12.38180255889893 375.0904235839844 15.25930309295654 C 376.3504333496094 18.23825263977051 376.9892883300781 21.40290260314941 376.9892883300781 24.66545295715332 C 376.9892883300781 27.92800331115723 376.3504333496094 31.09265327453613 375.0904235839844 34.07160186767578 C 373.8733215332031 36.94910430908203 372.1308288574219 39.53355407714844 369.911376953125 41.75300216674805 C 367.6918640136719 43.97250366210938 365.1074829101562 45.7149543762207 362.2299194335938 46.93205261230469 C 359.2509765625 48.19205474853516 356.0863342285156 48.83090209960938 352.8237915039062 48.83090209960938 Z"/><path class="c" d="M 24.66546630859375 1.000003814697266 C 21.47021484375 1.000003814697266 18.37109375 1.625553131103516 15.45413208007812 2.859352111816406 C 12.63616943359375 4.051254272460938 10.10519409179688 5.75775146484375 7.931427001953125 7.931453704833984 C 5.757720947265625 10.10515213012695 4.051239013671875 12.63615417480469 2.85931396484375 15.4541015625 C 1.625518798828125 18.37105369567871 0.999969482421875 21.4702033996582 0.999969482421875 24.66545295715332 C 0.999969482421875 27.86070251464844 1.625518798828125 30.95985221862793 2.85931396484375 33.87680435180664 C 4.051239013671875 36.69475173950195 5.757720947265625 39.22575378417969 7.931427001953125 41.39945220947266 C 10.10519409179688 43.57315444946289 12.63616943359375 45.2796516418457 15.45413208007812 46.47155380249023 C 18.37109375 47.70535278320312 21.47021484375 48.33090209960938 24.66546630859375 48.33090209960938 L 352.8237915039062 48.33090209960938 C 356.01904296875 48.33090209960938 359.1181640625 47.70535278320312 362.0351257324219 46.47155380249023 C 364.8530883789062 45.2796516418457 367.3840942382812 43.57315444946289 369.5577697753906 41.39945220947266 C 371.7314758300781 39.22575378417969 373.43798828125 36.69475173950195 374.6298828125 33.87680435180664 C 375.8636779785156 30.95985221862793 376.4892272949219 27.86070251464844 376.4892272949219 24.66545295715332 C 376.4892272949219 21.4702033996582 375.8636779785156 18.37105369567871 374.6298828125 15.4541015625 C 373.43798828125 12.63615417480469 371.7314758300781 10.10515213012695 369.5577697753906 7.931453704833984 C 367.3840942382812 5.75775146484375 364.8530883789062 4.051254272460938 362.0351257324219 2.859352111816406 C 359.1181640625 1.625553131103516 356.01904296875 1.000003814697266 352.8237915039062 1.000003814697266 L 24.66546630859375 1.000003814697266 M 24.66546630859375 3.814697265625e-06 L 352.8237915039062 3.814697265625e-06 C 366.4461364746094 3.814697265625e-06 377.4892272949219 11.0431022644043 377.4892272949219 24.66545295715332 C 377.4892272949219 38.28780364990234 366.4461364746094 49.33090209960938 352.8237915039062 49.33090209960938 L 24.66546630859375 49.33090209960938 C 11.04312133789062 49.33090209960938 -3.0517578125e-05 38.28780364990234 -3.0517578125e-05 24.66545295715332 C -3.0517578125e-05 11.0431022644043 11.04312133789062 3.814697265625e-06 24.66546630859375 3.814697265625e-06 Z"/></g></svg>